PathFileType	4	(X/Y/Z)	Patient4_TMGait_0pt5_01_right_29.trc.trc
DataRate	CameraRate	NumFrames	NumMarkers	Units	OrigDataRate	OrigDataStartFrame	OrigNumFrames
72.916666666667	72.916666666667	4	33	mm	72.916666666667	124	       141
Frame#	Time	L.ASIS			Sacral			L.Shoulder			Chest			R.Shoulder			Neck			R.ASIS			R.Thigh.Superior			R.Thigh.Lateral			R.Thigh.Inferior			R.Patella			L.Thigh.Superior			L.Thigh.Lateral			L.Thigh.Inferior			L.Patella			L.Shank.Superior			L.Shank.Lateral			L.Shank.Inferior			R.Shank.Superior			R.Shank.Lateral			R.Shank.Inferior			R.Heel			R.Midfoot.Superior			R.Midfoot.Lateral			R.Toe			L.Heel			L.Midfoot.Lateral			L.Midfoot.Superior			L.Toe			L.Elbow			L.Wrist			R.Elbow			R.Wrist			
		X1	Y1	Z1	X2	Y2	Z2	X3	Y3	Z3	X4	Y4	Z4	X5	Y5	Z5	X6	Y6	Z6	X7	Y7	Z7	X8	Y8	Z8	X9	Y9	Z9	X10	Y10	Z10	X11	Y11	Z11	X12	Y12	Z12	X13	Y13	Z13	X14	Y14	Z14	X15	Y15	Z15	X16	Y16	Z16	X17	Y17	Z17	X18	Y18	Z18	X19	Y19	Z19	X20	Y20	Z20	X21	Y21	Z21	X22	Y22	Z22	X23	Y23	Z23	X24	Y24	Z24	X25	Y25	Z25	X26	Y26	Z26	X27	Y27	Z27	X28	Y28	Z28	X29	Y29	Z29	X30	Y30	Z30	X31	Y31	Z31	X32	Y32	Z32	X33	Y33	Z33	

124	39.736857142857	871.338378123186	946.838478778467	317.961508411399	645.290688958514	1000.872738636482	455.029310857836	852.948563119611	1427.755854545527	300.224529420061	933.549978620475	1349.111404632036	469.445864468809	833.183651276641	1423.832252022009	635.433325463827	840.212453428345	1484.965973912664	451.900703821258	859.620392068587	933.649403394148	593.719864076463	928.235427525279	754.213390413049	570.291303130603	868.574992683351	634.774460976307	633.880145219750	958.528457351291	595.187413947609	557.667111707291	980.679147273892	512.159539515231	568.913910805295	867.004834045352	719.382054364987	349.057230076769	751.850474364537	629.100620351991	280.760734825927	804.019139037909	534.004408165418	349.182607864887	785.855964972547	466.010577487702	358.466658575755	749.508250305122	401.806360211668	348.097458104997	644.167574043517	303.925231688162	294.123062259805	671.024768566247	186.141208024888	366.231733440647	968.013624839022	421.612029610908	579.238998353130	914.399959673462	308.317738311997	641.176286913514	981.524431721053	222.423410275344	587.634381257524	882.913105923483	42.286259509686	556.610036451556	1046.032828596968	109.326415535324	600.168237564502	964.975298660282	38.219810611721	632.130897861449	1168.614121194763	68.658460691613	628.723404922291	522.944976447939	39.422583853494	401.919060704578	597.676941731961	35.539308855080	322.524508571449	682.020388982764	94.973331637555	350.359165905637	809.850075701287	39.686991445664	320.926892103468	848.842506404447	1087.651128781584	151.851488449680	1068.027160527526	964.643530768847	215.365600627645	765.100723968764	1074.285323727622	725.787104630465	883.732444155414	841.457220475662	728.177010126887	
125	39.750571428571	873.246056235953	946.238506051751	320.157332191099	647.744253413543	999.351397401230	458.210571145544	852.851825485805	1427.042612763161	303.539620567562	934.474653204171	1348.604532335459	472.351331349120	834.357839611506	1422.592799348719	638.868402537377	840.522308946191	1484.126954832678	455.396545206584	862.863717439658	932.243376099826	595.831817638632	932.057598261197	752.811459575439	571.146176983884	871.459484783911	633.219534232289	634.042816694398	961.321653807244	593.701847787289	557.861417732926	982.101737886403	509.429923463304	568.350939705572	868.221013523949	718.324179028403	350.112335662460	752.142773959869	628.373141090906	282.592858862542	804.549295651452	532.812653043083	350.337309140147	786.265982717648	464.037061374240	359.367435551022	748.284607181456	400.568518957186	349.119927169971	640.914626847207	304.780368862833	295.136649287266	666.078025310656	186.176439397173	366.508979867729	968.118589531834	418.726391910632	578.556913903600	912.592074019758	306.452273575341	640.648452036559	977.195835816185	219.318754186030	586.363840938820	873.924172916063	42.186733217559	556.077621953875	1038.778945533366	105.740659148439	598.487717488577	956.009897801683	37.357506741273	631.753316835887	1160.672968124481	62.374595812676	627.120729091264	516.031895860669	40.870116417021	401.772724097481	590.831932426228	36.176070114707	322.533058656546	675.675171361360	95.115426833268	350.178565415710	803.056420799248	39.418174996862	320.788701534290	848.271264159157	1086.200489256568	156.038637848221	1066.962046596756	961.508353822422	218.661168586631	768.935295871664	1072.605428504233	729.584449959781	891.647706791453	842.014928223388	732.690295213957	
126	39.764285714286	875.081127028173	945.932715554292	322.411550393724	650.236938674216	998.057593783913	461.599252386009	852.673078708777	1426.606481257033	306.982624259616	935.435991962247	1348.362875945172	475.318831924403	835.690438391447	1421.602458313791	642.441110683148	840.903776868520	1483.564151909855	459.033537743127	866.252955411833	931.140184428606	598.009011684848	936.008932784064	751.717448389598	571.871632552262	874.740158053456	632.112768925945	634.264640337100	964.288281260290	592.556156294823	557.928257019484	983.927835778030	507.075820631310	567.808727355139	870.121415640893	717.651968461896	351.210406188402	753.499757238413	627.593314343623	284.621860135746	806.663059841083	531.691011805516	351.583093970173	788.428412704156	461.906658112821	360.241652095540	748.425546782726	399.217510292534	350.217392566681	638.710417555186	306.007422889249	296.254919261624	661.775883941397	186.496328283078	366.778066801887	968.480253595049	416.222496788384	577.897085855726	911.120044743132	304.990203762924	640.278120327049	973.012167546948	216.582266069887	585.158231365200	865.009571055893	42.222267418219	555.703494004307	1031.464233737920	102.738044308507	596.946784830613	947.159961229724	36.779007879166	631.511509505739	1152.777850197226	56.880157067660	625.675592476757	509.286267409912	43.303734929321	401.629069088341	584.062292831365	37.371481259392	322.540887246261	669.656475120129	95.417801479820	349.925220213061	796.223722854862	39.084402899465	320.641787969743	847.207763185178	1084.996222478815	160.355048360966	1065.134340456604	957.811363190451	221.421536991211	773.062806299934	1071.164569036327	733.530001986759	899.297773676248	842.578600892852	737.530912097842	
127	39.778000000000	876.783180855816	945.966429856394	324.711826318975	652.715620369371	997.061770845180	465.163606757588	852.434511585690	1426.508994573289	310.507840738942	936.423116387081	1348.421440004396	478.306650245495	837.190372091384	1420.928061846779	646.094820032868	841.372753621260	1483.326459803448	462.759747001648	869.710034363825	930.411420530631	600.254764661019	939.887317805212	750.946674483098	572.550172631477	878.210496938575	631.468572363791	634.633259211899	967.205507003456	591.739731605975	557.951892378447	985.916007280200	505.152321445745	567.383443656077	872.746820841229	717.428138432866	352.397939232202	756.080877077330	626.764644829548	286.829028804715	810.560828320484	530.681127265074	352.913097030295	792.542463754046	459.670568834214	361.052391615134	750.130332285703	397.792510469068	351.363785934499	637.769110528518	307.692356766785	297.466561226525	658.288929438222	187.210831948853	367.034385981859	968.941774608547	414.170173182982	577.354191961735	909.917915702521	303.955668409617	640.119091303311	969.037895205196	214.317218718884	584.110416824230	856.506382472857	42.359927536081	555.484978937013	1024.327125177500	100.442044606429	595.668951654689	938.738675206833	36.462377535975	631.399940970549	1145.179185230227	52.407890427110	624.507332393217	502.843811125716	47.008871894102	401.516562119366	577.446157167292	39.335768262244	322.563954502236	664.082263776748	95.955880829319	349.604646410840	789.340728898693	38.669944458028	320.498598114193	845.693342810634	1084.100067889640	164.815242535471	1062.487501918683	953.534554565285	223.653543635202	777.499372460240	1070.051962430957	737.610147347905	906.725806773805	843.224990459732	742.594792470489	
